<?xml version="1.0" encoding="UTF-8"?>
<svg width="24px" height="22px" viewBox="0 0 24 22" version="1.1" xmlns="http://www.w3.org/2000/svg" xmlns:xlink="http://www.w3.org/1999/xlink">
    <!-- Generator: Sketch 46.2 (44496) - http://www.bohemiancoding.com/sketch -->
    <title>Group 2</title>
    <desc>Created with Sketch.</desc>
    <defs></defs>
    <g id="Symbols" stroke="none" stroke-width="1" fill="none" fill-rule="evenodd">
        <g id="Side-navigation-Messages-Copy-2" transform="translate(-42.000000, -303.000000)">
            <g id="Group-2" transform="translate(43.000000, 304.000000)">
                <polyline id="Line" stroke="#454B51" stroke-width="1.5" stroke-linecap="square" points="0.5 8.81818182 20.3830555 8.81818182 21.5 8.81818182"></polyline>
                <path d="M17.7222222,14.5971253 C18.2407433,14.5971253 18.666665,14.4258353 19,14.0832503 C19.333335,13.7406652 19.5,13.3124403 19.5,12.7985626 C19.5,12.284685 19.333335,11.8564601 19,11.513875 C18.666665,11.17129 18.2500025,11 17.75,11 C17.2499975,11 16.833335,11.17129 16.5,11.513875 C16.166665,11.8564601 16,12.284685 16,12.7985626 C16,13.3124403 16.166665,13.7406652 16.5,14.0832503 C16.833335,14.4258353 17.2407383,14.5971253 17.7222222,14.5971253 Z" id="Path" fill="#454B51"></path>
                <path d="M3.77777778,14.5971253 C4.25926167,14.5971253 4.666665,14.4258353 5,14.0832503 C5.333335,13.7406652 5.5,13.3124403 5.5,12.7985626 C5.5,12.284685 5.333335,11.8564601 5,11.513875 C4.666665,11.17129 4.2500025,11 3.75,11 C3.2499975,11 2.833335,11.17129 2.5,11.513875 C2.166665,11.8564601 2,12.284685 2,12.7985626 C2,13.3124403 2.166665,13.7406652 2.5,14.0832503 C2.833335,14.4258353 3.25925667,14.5971253 3.77777778,14.5971253 Z" id="Path" fill="#454B51"></path>
                <path d="M19.1034031,1.21265885 L21.5756082,8.60410324 L21.5756082,18.478611 C21.5756082,18.8250867 21.4632364,19.1138121 21.2384893,19.3447959 C21.0137423,19.5757797 20.7328127,19.6912698 20.3956921,19.6912698 L19.1595896,19.6912698 C18.822469,19.6912698 18.5415394,19.5757797 18.3167924,19.3447959 C18.0920453,19.1138121 17.9796735,18.8250867 17.9796735,18.478611 L17.9796735,17.2082065 L3.5959347,17.2082065 L3.5959347,18.478611 C3.5959347,18.8250867 3.48356287,19.1138121 3.25881582,19.3447959 C3.03406878,19.5757797 2.75313919,19.6912698 2.41601863,19.6912698 L1.17991607,19.6912698 C0.84279551,19.6912698 0.561865921,19.5757797 0.337118878,19.3447959 C0.112371836,19.1138121 0,18.8250867 0,18.478611 L0,8.60410324 L2.47220511,1.21265885 C2.62203647,0.866183158 2.84678014,0.577457748 3.14644286,0.346473956 C3.44610559,0.115490164 3.80194974,0 4.21398598,0 L17.3616222,0 C17.7736585,0 18.1295026,0.115490164 18.4291654,0.346473956 C18.7288281,0.577457748 18.9535717,0.866183158 19.1034031,1.21265885 Z" id="Path" stroke="#454B51" stroke-width="1.5"></path>
            </g>
        </g>
    </g>
</svg>