<?xml version="1.0" encoding="UTF-8"?>
<svg width="24px" height="22px" viewBox="0 0 24 22" version="1.1" xmlns="http://www.w3.org/2000/svg" xmlns:xlink="http://www.w3.org/1999/xlink">
    <!-- Generator: Sketch 46.2 (44496) - http://www.bohemiancoding.com/sketch -->
    <title></title>
    <desc>Created with Sketch.</desc>
    <defs></defs>
    <g id="Symbols" stroke="none" stroke-width="1" fill="none" fill-rule="evenodd">
        <g id="Side-navigation-Messages-Copy-2" transform="translate(-44.000000, -475.000000)" stroke="#454B51" stroke-width="1.5">
            <path d="M60.6914062,476 C62.384123,476.033854 63.7890569,476.609369 64.90625,477.726562 C66.0234431,478.843756 66.5989582,480.248689 66.6328125,481.941406 C66.5989582,483.938812 65.7526125,485.902334 64.09375,487.832031 C62.4348875,489.761728 60.2005349,491.962227 57.390625,494.433594 L55.8164062,495.855469 L54.2421875,494.433594 C51.4322776,491.962227 49.197925,489.761728 47.5390625,487.832031 C45.8802,485.902334 45.0338543,483.938812 45,481.941406 C45.0338543,480.248689 45.6093694,478.843756 46.7265625,477.726562 C47.8437556,476.609369 49.2486895,476.033854 50.9414062,476 C51.8893277,476 52.7864541,476.203123 53.6328125,476.609375 C54.4791709,477.015627 55.2070282,477.557288 55.8164062,478.234375 C56.4257843,477.557288 57.1536416,477.015627 58,476.609375 C58.8463584,476.203123 59.7434848,476 60.6914062,476 Z" id=""></path>
        </g>
    </g>
</svg>