<?xml version="1.0" encoding="UTF-8"?>
<svg width="24px" height="22px" viewBox="0 0 24 22" version="1.1" xmlns="http://www.w3.org/2000/svg" xmlns:xlink="http://www.w3.org/1999/xlink">
    <!-- Generator: Sketch 44.1 (41455) - http://www.bohemiancoding.com/sketch -->
    <title></title>
    <desc>Created with Sketch.</desc>
    <defs></defs>
    <g id="Page-5" stroke="none" stroke-width="1" fill="none" fill-rule="evenodd">
        <g id="Desktop" transform="translate(-629.000000, -588.000000)" stroke="#ED3124" stroke-width="1.5">
            <path d="M645.691406,589 C647.384123,589.033854 648.789057,589.609369 649.90625,590.726562 C651.023443,591.843756 651.598958,593.248689 651.632812,594.941406 C651.598958,596.938812 650.752612,598.902334 649.09375,600.832031 C647.434888,602.761728 645.200535,604.962227 642.390625,607.433594 L640.816406,608.855469 L639.242188,607.433594 C636.432278,604.962227 634.197925,602.761728 632.539062,600.832031 C630.8802,598.902334 630.033854,596.938812 630,594.941406 C630.033854,593.248689 630.609369,591.843756 631.726562,590.726562 C632.843756,589.609369 634.248689,589.033854 635.941406,589 C636.889328,589 637.786454,589.203123 638.632812,589.609375 C639.479171,590.015627 640.207028,590.557288 640.816406,591.234375 C641.425784,590.557288 642.153642,590.015627 643,589.609375 C643.846358,589.203123 644.743485,589 645.691406,589 Z" id=""></path>
        </g>
    </g>
</svg>