<?xml version="1.0" encoding="UTF-8"?>
<svg width="24px" height="22px" viewBox="0 0 24 22" version="1.1" xmlns="http://www.w3.org/2000/svg" xmlns:xlink="http://www.w3.org/1999/xlink">
    <!-- Generator: Sketch 46.2 (44496) - http://www.bohemiancoding.com/sketch -->
    <title>Group 3</title>
    <desc>Created with Sketch.</desc>
    <defs></defs>
    <g id="Symbols" stroke="none" stroke-width="1" fill="none" fill-rule="evenodd">
        <g id="Side-navigation-Messages-Copy-2" transform="translate(-43.000000, -387.000000)" stroke="#454B51">
            <g id="Group-3" transform="translate(44.000000, 388.000000)">
                <path d="M7.54639818,19.6912698 C7.24251485,19.6912698 6.98928255,19.5988235 6.78669366,19.413928 C6.58410478,19.2290325 6.48281186,18.9979166 6.48281186,18.7205734 L6.48281186,15.7622606 L2.12717264,15.7622606 C1.51940599,15.7622606 1.01294138,15.569664 0.607763612,15.1844651 C0.202585845,14.7992662 0,14.3293306 0,13.7746442 L0,1.9413928 C0,1.38670637 0.202585845,0.924474611 0.607763612,0.554683657 C1.01294138,0.184892703 1.51940599,0 2.12717264,0 L19.4484356,0 C20.0562022,0 20.5626668,0.184892703 20.9678446,0.554683657 C21.3730224,0.924474611 21.5756082,1.38670637 21.5756082,1.9413928 L21.5756082,13.7746442 C21.5756082,14.3293306 21.3730224,14.7992662 20.9678446,15.1844651 C20.5626668,15.569664 20.0562022,15.7622606 19.4484356,15.7622606 L12.8643298,15.7622606 L8.86321934,19.413928 C8.62686564,19.5988235 8.37363333,19.6912698 8.10351482,19.6912698 L7.54639818,19.6912698 Z" id="" stroke-width="1.5"></path>
                <path d="M11.5,8.38043035 L11.5,7.5 L10.5,7.5 L10.5,8.38043035 L11.5,8.38043035 Z" id="Path"></path>
                <path d="M15.5,8.33669941 L15.5,7.5 L14.5,7.5 L14.5,8.33669941 L15.5,8.33669941 Z" id="Path"></path>
                <path d="M7.5,8.33669941 L7.5,7.5 L6.5,7.5 L6.5,8.33669941 L7.5,8.33669941 Z" id="Path"></path>
            </g>
        </g>
    </g>
</svg>