<?xml version="1.0" encoding="UTF-8"?>
<svg width="23px" height="16px" viewBox="0 0 23 16" version="1.1" xmlns="http://www.w3.org/2000/svg" xmlns:xlink="http://www.w3.org/1999/xlink">
    <!-- Generator: Sketch 46.2 (44496) - http://www.bohemiancoding.com/sketch -->
    <title></title>
    <desc>Created with Sketch.</desc>
    <defs></defs>
    <g id="Symbols" stroke="none" stroke-width="1" fill="none" fill-rule="evenodd">
        <g id="Side-navigation-Messages-Copy-2" transform="translate(-43.000000, -220.000000)" fill="#454B51">
            <path d="M48.7084189,228.854528 L48.7084189,227.145541 L65.723873,227.145541 L65.723873,228.854528 L54.1538899,228.854528 L48.7084189,228.854528 Z M48.7084189,234.551152 L48.7084189,232.842165 L65.723873,232.842165 L65.723873,234.551152 L54.1538899,234.551152 L48.7084189,234.551152 Z M48.7084189,223.157904 L48.7084189,221.448917 L65.723873,221.448917 L65.723873,223.157904 L54.1538899,223.157904 L48.7084189,223.157904 Z M45.1254233,226.575844 C45.5473976,226.575844 45.8940141,226.709357 46.1652832,226.976388 C46.4365524,227.243418 46.5721849,227.584619 46.5721849,228 C46.5721849,228.415381 46.4365524,228.756582 46.1652832,229.023612 C45.8940141,229.290643 45.5549327,229.424156 45.148029,229.424156 C44.7411252,229.424156 44.4020438,229.290643 44.1307747,229.023612 C43.8595055,228.756582 43.723873,228.415381 43.723873,228 C43.723873,227.584619 43.8595055,227.243418 44.1307747,226.976388 C44.4020438,226.709357 44.7335901,226.575844 45.1254233,226.575844 Z M45.1254233,232.272468 C45.5473976,232.272468 45.8940141,232.405981 46.1652832,232.673012 C46.4365524,232.940042 46.5721849,233.281243 46.5721849,233.696624 C46.5721849,234.112005 46.4365524,234.453206 46.1652832,234.720236 C45.8940141,234.987267 45.5549327,235.12078 45.148029,235.12078 C44.7411252,235.12078 44.4020438,234.987267 44.1307747,234.720236 C43.8595055,234.453206 43.723873,234.112005 43.723873,233.696624 C43.723873,233.281243 43.8595055,232.940042 44.1307747,232.673012 C44.4020438,232.405981 44.7335901,232.272468 45.1254233,232.272468 Z M45.1254233,220.87922 C45.5473976,220.87922 45.8940141,221.012733 46.1652832,221.279764 C46.4365524,221.546794 46.5721849,221.887995 46.5721849,222.303376 C46.5721849,222.718757 46.4365524,223.059958 46.1652832,223.326988 C45.8940141,223.594019 45.5549327,223.727532 45.148029,223.727532 C44.7411252,223.727532 44.4020438,223.594019 44.1307747,223.326988 C43.8595055,223.059958 43.723873,222.718757 43.723873,222.303376 C43.723873,221.887995 43.8595055,221.546794 44.1307747,221.279764 C44.4020438,221.012733 44.7335901,220.87922 45.1254233,220.87922 Z" id=""></path>
        </g>
    </g>
</svg>