<?xml version="1.0" encoding="UTF-8"?>
<svg width="23px" height="16px" viewBox="0 0 23 16" version="1.1" xmlns="http://www.w3.org/2000/svg" xmlns:xlink="http://www.w3.org/1999/xlink">
    <!-- Generator: Sketch 44.1 (41455) - http://www.bohemiancoding.com/sketch -->
    <title></title>
    <desc>Created with Sketch.</desc>
    <defs></defs>
    <g id="Page-5" stroke="none" stroke-width="1" fill="none" fill-rule="evenodd">
        <g id="Desktop" transform="translate(-628.000000, -333.000000)" fill="#ED3124">
            <path d="M633.708419,341.854528 L633.708419,340.145541 L650.723873,340.145541 L650.723873,341.854528 L639.15389,341.854528 L633.708419,341.854528 Z M633.708419,347.551152 L633.708419,345.842165 L650.723873,345.842165 L650.723873,347.551152 L639.15389,347.551152 L633.708419,347.551152 Z M633.708419,336.157904 L633.708419,334.448917 L650.723873,334.448917 L650.723873,336.157904 L639.15389,336.157904 L633.708419,336.157904 Z M630.125423,339.575844 C630.547398,339.575844 630.894014,339.709357 631.165283,339.976388 C631.436552,340.243418 631.572185,340.584619 631.572185,341 C631.572185,341.415381 631.436552,341.756582 631.165283,342.023612 C630.894014,342.290643 630.554933,342.424156 630.148029,342.424156 C629.741125,342.424156 629.402044,342.290643 629.130775,342.023612 C628.859505,341.756582 628.723873,341.415381 628.723873,341 C628.723873,340.584619 628.859505,340.243418 629.130775,339.976388 C629.402044,339.709357 629.73359,339.575844 630.125423,339.575844 Z M630.125423,345.272468 C630.547398,345.272468 630.894014,345.405981 631.165283,345.673012 C631.436552,345.940042 631.572185,346.281243 631.572185,346.696624 C631.572185,347.112005 631.436552,347.453206 631.165283,347.720236 C630.894014,347.987267 630.554933,348.12078 630.148029,348.12078 C629.741125,348.12078 629.402044,347.987267 629.130775,347.720236 C628.859505,347.453206 628.723873,347.112005 628.723873,346.696624 C628.723873,346.281243 628.859505,345.940042 629.130775,345.673012 C629.402044,345.405981 629.73359,345.272468 630.125423,345.272468 Z M630.125423,333.87922 C630.547398,333.87922 630.894014,334.012733 631.165283,334.279764 C631.436552,334.546794 631.572185,334.887995 631.572185,335.303376 C631.572185,335.718757 631.436552,336.059958 631.165283,336.326988 C630.894014,336.594019 630.554933,336.727532 630.148029,336.727532 C629.741125,336.727532 629.402044,336.594019 629.130775,336.326988 C628.859505,336.059958 628.723873,335.718757 628.723873,335.303376 C628.723873,334.887995 628.859505,334.546794 629.130775,334.279764 C629.402044,334.012733 629.73359,333.87922 630.125423,333.87922 Z" id=""></path>
        </g>
    </g>
</svg>