<?xml version="1.0" encoding="utf-8"?>
<!-- Generator: Adobe Illustrator 20.0.0, SVG Export Plug-In . SVG Version: 6.00 Build 0)  -->
<svg version="1.0" id="Layer_1" xmlns="http://www.w3.org/2000/svg" xmlns:xlink="http://www.w3.org/1999/xlink" x="0px" y="0px"
	 viewBox="0 0 325 325" style="enable-background:new 0 0 325 325;" xml:space="preserve">
<style type="text/css">
	.st0{fill:#006FBA;}
	.st1{fill:#00000A;}
	.st2{fill:#23AE49;}
	.st3{fill:#EE3124;}
	.st4{fill:#F58021;}
</style>
<g>
	<defs>
		<rect id="SVGID_1_" y="0" width="629.3" height="629.3"/>
	</defs>
	<clipPath id="SVGID_2_">
		<use xlink:href="#SVGID_1_"  style="overflow:visible;"/>
	</clipPath>
</g>
<g>
	<path class="st0" d="M167.8,276.5c37.9,0,72.4-18.2,93.7-49.1H74.2C94.8,257,129.1,276.5,167.8,276.5"/>
	<path class="st1" d="M272.7,225.4c-22.3,37.2-61.6,59.4-104.9,59.4c-67.4,0-122.3-54.9-122.3-122.3c0-67.4,54.9-122.3,122.3-122.3
		c43.2,0,83.7,23.2,105.5,60.6l3.1,5.2h33.2C287.2,49.8,232.2,10,167.9,10C83.7,10,15.4,78.3,15.4,162.5S83.7,315,167.9,315
		c64.2,0,119-39.6,141.6-95.8h-33.2L272.7,225.4z"/>
	<path class="st2" d="M204.4,54.7l-23.6,44.1h81.4C248.2,78,227.7,62.6,204.4,54.7"/>
	<path class="st3" d="M133.7,155.9L92.1,77.4c-23.5,20.9-38.3,51.3-38.3,85.1c0,20.6,5.5,39.9,15.1,56.6h64.7h33.4L133.7,155.9z"/>
	<path class="st4" d="M167.8,48.5c-26,0-50,8.8-69.2,23.5l35,66.1l8.3,15.6l25.6-47.8l28.8-53.8C187.1,49.8,177.5,48.5,167.8,48.5"
		/>
</g>
</svg>
